<?xml version="1.0" encoding="UTF-8" standalone="no"?>
<svg
   height="240"
   viewBox="0 0 240 240"
   width="240"
   fill="#000000"
   version="1.1"
   id="svg26"
   sodipodi:docname="logo-light.svg"
   inkscape:version="1.2.1 (9c6d41e410, 2022-07-14)"
   inkscape:export-filename="logo-light.png"
   inkscape:export-xdpi="96"
   inkscape:export-ydpi="96"
   xmlns:inkscape="http://www.inkscape.org/namespaces/inkscape"
   xmlns:sodipodi="http://sodipodi.sourceforge.net/DTD/sodipodi-0.dtd"
   xmlns="http://www.w3.org/2000/svg"
   xmlns:svg="http://www.w3.org/2000/svg">
  <defs
     id="defs30" />
  <sodipodi:namedview
     id="namedview28"
     pagecolor="#ffffff"
     bordercolor="#000000"
     borderopacity="0.25"
     inkscape:showpageshadow="2"
     inkscape:pageopacity="0.0"
     inkscape:pagecheckerboard="0"
     inkscape:deskcolor="#d1d1d1"
     showgrid="false"
     inkscape:zoom="1"
     inkscape:cx="-90.5"
     inkscape:cy="107.5"
     inkscape:window-width="1920"
     inkscape:window-height="1001"
     inkscape:window-x="-9"
     inkscape:window-y="-9"
     inkscape:window-maximized="1"
     inkscape:current-layer="svg26" />
  <g
     id="g24"
     transform="matrix(9.1666667,0,0,11.578947,10,-13.157895)">
    <g
       id="g22">
      <circle
         cx="4"
         cy="14"
         r="2"
         id="circle8"
         style="fill:#ffffff;fill-opacity:1" />
      <path
         d="M 1.22,17.58 C 0.48,17.9 0,18.62 0,19.43 V 20 c 0,0.55 0.45,1 1,1 H 4.5 V 19.39 C 4.5,18.56 4.73,17.78 5.13,17.1 4.76,17.04 4.39,17 4,17 3.01,17 2.07,17.21 1.22,17.58 Z"
         id="path10"
         style="fill:#ffffff;fill-opacity:1" />
      <circle
         cx="20"
         cy="14"
         r="2"
         id="circle12"
         style="fill:#ffffff;fill-opacity:1" />
      <path
         d="M 22.78,17.58 C 21.93,17.21 20.99,17 20,17 c -0.39,0 -0.76,0.04 -1.13,0.1 0.4,0.68 0.63,1.46 0.63,2.29 V 21 H 23 c 0.55,0 1,-0.45 1,-1 v -0.57 c 0,-0.81 -0.48,-1.53 -1.22,-1.85 z"
         id="path14"
         style="fill:#ffffff;fill-opacity:1" />
      <path
         d="m 16.24,16.65 c -1.17,-0.52 -2.61,-0.9 -4.24,-0.9 -1.63,0 -3.07,0.39 -4.24,0.9 C 6.68,17.13 6,18.21 6,19.39 V 20 c 0,0.55 0.45,1 1,1 h 10 c 0.55,0 1,-0.45 1,-1 v -0.61 c 0,-1.18 -0.68,-2.26 -1.76,-2.74 z"
         id="path16"
         style="fill:#ffffff;fill-opacity:1" />
      <path
         d="m 9,12 c 0,1.66 1.34,3 3,3 1.66,0 3,-1.34 3,-3 0,-1.66 -1.34,-3 -3,-3 -1.66,0 -3,1.34 -3,3 z"
         id="path18"
         style="fill:#ffffff;fill-opacity:1" />
      <path
         d="M 2.48,10.86 C 2.17,10.1 2,9.36 2,8.6 2,6.02 4.02,4 6.6,4 9.28,4 10.42,5.74 12,7.59 13.57,5.76 14.7,4 17.4,4 19.98,4 22,6.02 22,8.6 c 0,0.76 -0.17,1.5 -0.48,2.26 0.65,0.31 1.18,0.82 1.53,1.44 C 23.65,11.1 24,9.88 24,8.6 24,4.9 21.1,2 17.4,2 15.31,2 13.31,2.97 12,4.51 10.69,2.97 8.69,2 6.6,2 2.9,2 0,4.9 0,8.6 c 0,1.28 0.35,2.5 0.96,3.7 0.35,-0.62 0.88,-1.13 1.52,-1.44 z"
         id="path20"
         style="fill:#2196f3;fill-opacity:1" />
    </g>
  </g>
</svg>
